<?xml version="1.0" encoding="utf-8"?>
<svg xmlns="http://www.w3.org/2000/svg" fill="none" height="100%" overflow="visible" preserveAspectRatio="none" style="display: block;" viewBox="0 0 9.48528 7.36396" width="100%">
<path d="M0.5 3.18198C0.223858 3.18198 0 3.40584 0 3.68198C0 3.95812 0.223858 4.18198 0.5 4.18198V3.68198V3.18198ZM9.33884 4.03553C9.5341 3.84027 9.5341 3.52369 9.33884 3.32843L6.15685 0.146447C5.96159 -0.0488155 5.64501 -0.0488155 5.44975 0.146447C5.25449 0.341709 5.25449 0.658291 5.44975 0.853554L8.27818 3.68198L5.44975 6.51041C5.25449 6.70567 5.25449 7.02225 5.44975 7.21751C5.64501 7.41278 5.96159 7.41278 6.15685 7.21751L9.33884 4.03553ZM0.5 3.68198V4.18198H8.98528V3.68198V3.18198H0.5V3.68198Z" fill="var(--stroke-0, #0445D5)" id="Arrow 1"/>
</svg>