<?xml version="1.0" encoding="utf-8"?>
<svg xmlns="http://www.w3.org/2000/svg" fill="none" height="100%" overflow="visible" preserveAspectRatio="none" style="display: block;" viewBox="0 0 16 684.577" width="100%">
<g id="Group 43">
<line id="Line 5" stroke="var(--stroke-0, #545454)" x2="16" y1="0.5" y2="0.5"/>
<line id="Line 9" stroke="var(--stroke-0, #545454)" x2="16" y1="140.745" y2="140.745"/>
<line id="Line 13" stroke="var(--stroke-0, #545454)" x2="16" y1="285.633" y2="285.633"/>
<line id="Line 17" stroke="var(--stroke-0, #545454)" x2="16" y1="430.522" y2="430.522"/>
<line id="Line 21" stroke="var(--stroke-0, #545454)" x2="16" y1="575.41" y2="575.41"/>
<line id="Line 7" stroke="var(--stroke-0, #545454)" x2="16" y1="72.9443" y2="72.9443"/>
<line id="Line 10" stroke="var(--stroke-0, #545454)" x2="16" y1="213.189" y2="213.189"/>
<line id="Line 14" stroke="var(--stroke-0, #545454)" x2="16" y1="358.077" y2="358.077"/>
<line id="Line 18" stroke="var(--stroke-0, #545454)" x2="16" y1="502.966" y2="502.966"/>
<line id="Line 22" stroke="var(--stroke-0, #545454)" x2="16" y1="647.854" y2="647.854"/>
<line id="Line 6" stroke="var(--stroke-0, #545454)" x2="16" y1="36.7222" y2="36.7222"/>
<line id="Line 11" stroke="var(--stroke-0, #545454)" x2="16" y1="176.967" y2="176.967"/>
<line id="Line 15" stroke="var(--stroke-0, #545454)" x2="16" y1="321.855" y2="321.855"/>
<line id="Line 19" stroke="var(--stroke-0, #545454)" x2="16" y1="466.744" y2="466.744"/>
<line id="Line 23" stroke="var(--stroke-0, #545454)" x2="16" y1="611.632" y2="611.632"/>
<line id="Line 8" stroke="var(--stroke-0, #545454)" x2="16" y1="109.166" y2="109.166"/>
<line id="Line 12" stroke="var(--stroke-0, #545454)" x2="16" y1="249.411" y2="249.411"/>
<line id="Line 16" stroke="var(--stroke-0, #545454)" x2="16" y1="394.299" y2="394.299"/>
<line id="Line 20" stroke="var(--stroke-0, #545454)" x2="16" y1="539.188" y2="539.188"/>
<line id="Line 24" stroke="var(--stroke-0, #545454)" x2="16" y1="684.077" y2="684.077"/>
</g>
</svg>